# xmcd
# 
# Track frame offsets:
#     150
#     18105
#     33155
#     45580
#     65595
#     78065
#     96580
#     107180
#     132513
#     153433
#     176395
# 
# Disc length: 2707
# 
# Revision: 1
# Processed by: cddbd v1.5.2PL0 Copyright (c) Steve Scherf et al.
# Submitted via: fre:ac v1.0.31
# 
DISCID=840a910b
DTITLE=Stevie Wonder - Natural Wonder - Disc 2
DYEAR=1995
DGENRE=
TTITLE0=Overjoyed
TTITLE1=My Cherie Amour
TTITLE2=Signed, Sealed, Delivered, I'm Yours
TTITLE3=Living For The City
TTITLE4=Sir Duke
TTITLE5=I Wish
TTITLE6=You Are The Sunshine Of My Life
TTITLE7=Superstition
TTITLE8=I Just Called To Say I Love You
TTITLE9=For You Love
TTITLE10=Another Star
EXTD=
EXTT0=
EXTT1=
EXTT2=
EXTT3=
EXTT4=
EXTT5=
EXTT6=
EXTT7=
EXTT8=
EXTT9=
EXTT10=
PLAYORDER=
